<svg xmlns="http://www.w3.org/2000/svg" xmlns:xlink="http://www.w3.org/1999/xlink" x="0px" y="0px" viewBox="0 0 64 80" style="enable-background:new 0 0 64 64;" xml:space="preserve">
	<style type="text/css">
		.st0{display:none;}
		.st1{display:inline;}
		.st2{fill:none;stroke:#B3B3B3;stroke-width:0.1;stroke-miterlimit:10;}
	</style>
	<g class="st0">
		<g class="st1">
			<rect x="2" y="2" class="st2" width="60" height="60"></rect>
			<line class="st2" x1="32" y1="2" x2="32" y2="62"></line>
			<line class="st2" x1="62" y1="32" x2="2" y2="32"></line>
			<line class="st2" x1="2" y1="2" x2="62" y2="62"></line>
			<rect x="10" y="10" class="st2" width="44" height="44"></rect>
			<line class="st2" x1="62" y1="2" x2="2" y2="62"></line>
			<line class="st2" x1="2" y1="32" x2="32" y2="2"></line>
			<line class="st2" x1="32" y1="2" x2="62" y2="32"></line>
			<line class="st2" x1="62" y1="32" x2="32" y2="62"></line>
			<line class="st2" x1="32" y1="62" x2="2" y2="32"></line>
			<circle class="st2" cx="32" cy="32" r="21"></circle>
		</g>
	</g>
	<path d="M58.8,34H33c-1.7,0-3,1.3-3,3v16c0,1.7,1.3,3,3,3h10v4h-3v2h12v-2h-3v-4h9.8c1.7,0,3.3-1.3,3.3-3V37  C62,35.3,60.4,34,58.8,34z M47,60h-2v-4h2V60z M60,53c0,0.6-0.7,1-1.3,1H33c-0.6,0-1-0.4-1-1v-3h28V53z M60,48H32V37  c0-0.6,0.4-1,1-1h25.8c0.6,0,1.3,0.4,1.3,1L60,48L60,48z"></path>
	<path d="M25.1,8.7l-5.8-5.8C18.7,2.3,18,2,17.2,2H5C3.3,2,2,3.3,2,5v24c0,1.7,1.3,3,3,3h18c1.7,0,3-1.3,3-3V10.8  C26,10,25.7,9.3,25.1,8.7z M19,5.4L22.6,9H20c-0.6,0-1-0.4-1-1V5.4z M23,30H5c-0.6,0-1-0.4-1-1V5c0-0.6,0.4-1,1-1h12v4  c0,1.7,1.3,3,3,3h4v18C24,29.6,23.6,30,23,30z"></path>
	<polygon points="10.3,23.7 5.6,19 10.3,14.3 11.7,15.7 8.4,19 11.7,22.3 "></polygon>
	<polygon points="17.7,23.7 16.3,22.3 19.6,19 16.3,15.7 17.7,14.3 22.4,19 "></polygon>
	<rect x="13" y="14.9" transform="matrix(-0.9702 -0.2422 0.2422 -0.9702 22.9801 40.8242)" width="2" height="8.2"></rect>
	<path d="M52.2,23.3C48.8,15.3,40.8,10,32,10c-1.4,0-2.8,0.1-4.2,0.4l0.4,2c1.2-0.2,2.5-0.4,3.8-0.4c7.9,0,15,4.7,18.2,11.7l-3.8,0.8  L53,32l3.2-9.4L52.2,23.3z"></path>
	<path d="M14.7,41.9l3.7-1.1L11.1,34l-2.3,9.7l3.9-1.2c3.1,5.7,8.7,9.8,15.1,11.1l0.4-2C22.5,50.5,17.5,47,14.7,41.9z"></path>
</svg>