<svg xmlns="http://www.w3.org/2000/svg" xmlns:xlink="http://www.w3.org/1999/xlink" x="0px" y="0px" viewBox="0 0 66 82.5" xml:space="preserve">
	<g>
		<path d="M65,9.1c0-2-1.6-3.7-3.7-3.7H4.7C2.7,5.4,1,7.1,1,9.1v47.8c0,2,1.7,3.7,3.7,3.7h56.6c2,0,3.7-1.7,3.7-3.7   C65,34.6,65,32,65,9.1z M4.7,7.4h56.6c0.9,0,1.7,0.8,1.7,1.7v7.4H3V9.1C3,8.2,3.8,7.4,4.7,7.4z M61.3,58.6H4.7   c-0.9,0-1.7-0.8-1.7-1.7V18.5h60v38.4C63,57.8,62.3,58.6,61.3,58.6z"></path>
		<path d="M55.5,15.1c1.7,0,3-1.4,3-3s-1.4-3-3-3s-3,1.4-3,3S53.8,15.1,55.5,15.1z M55.5,11.1c0.6,0,1,0.5,1,1s-0.5,1-1,1s-1-0.5-1-1   S54.9,11.1,55.5,11.1z"></path>
		<path d="M47.4,15.1c1.7,0,3-1.4,3-3s-1.4-3-3-3s-3,1.4-3,3S45.8,15.1,47.4,15.1z M47.4,11.1c0.6,0,1,0.5,1,1s-0.5,1-1,1s-1-0.5-1-1   S46.9,11.1,47.4,11.1z"></path>
		<path d="M39.4,15.1c1.7,0,3-1.4,3-3s-1.4-3-3-3s-3,1.4-3,3S37.7,15.1,39.4,15.1z M39.4,11.1c0.6,0,1,0.5,1,1s-0.5,1-1,1s-1-0.5-1-1   S38.8,11.1,39.4,11.1z"></path>
		<path d="M11.1,13.1h20.9c0.6,0,1-0.4,1-1s-0.4-1-1-1H11.1c-0.6,0-1,0.4-1,1S10.6,13.1,11.1,13.1z"></path>
		<path d="M40.4,37.3c-2.8,0-5.1,2.3-5.1,5.1c0,2.8,2.3,5.1,5.1,5.1s5.1-2.3,5.1-5.1C45.5,39.6,43.2,37.3,40.4,37.3z M40.4,45.5   c-1.7,0-3.1-1.4-3.1-3.1s1.4-3.1,3.1-3.1s3.1,1.4,3.1,3.1S42.1,45.5,40.4,45.5z"></path>
		<path d="M7.4,25.4h11.3c0.6,0,1-0.4,1-1s-0.4-1-1-1H7.4c-0.6,0-1,0.4-1,1S6.9,25.4,7.4,25.4z"></path>
		<path d="M24.9,28.7H7.4c-0.6,0-1,0.4-1,1s0.4,1,1,1h17.4c0.6,0,1-0.4,1-1S25.4,28.7,24.9,28.7z"></path>
		<path d="M24.9,34.1H7.4c-0.6,0-1,0.4-1,1s0.4,1,1,1h17.4c0.6,0,1-0.4,1-1S25.4,34.1,24.9,34.1z"></path>
		<path d="M24.9,39.5H7.4c-0.6,0-1,0.4-1,1s0.4,1,1,1h17.4c0.6,0,1-0.4,1-1S25.4,39.5,24.9,39.5z"></path>
		<path d="M19.1,45H7.4c-0.6,0-1,0.4-1,1s0.4,1,1,1h11.7c0.6,0,1-0.4,1-1S19.7,45,19.1,45z"></path>
		<path d="M56.7,23.2c-0.2-0.2-0.4-0.3-0.7-0.3c-0.3,0-0.5,0.1-0.7,0.3l-2.5,2.5c-0.4,0.4-0.4,1,0,1.4s1,0.4,1.4,0l0.8-0.8v15.1h-2   v-0.9c0-0.5-0.4-0.9-0.9-1l-2.7-0.4c-0.1-0.2-0.2-0.5-0.3-0.7l1.6-2.2c0.3-0.4,0.3-1-0.1-1.3l-2.7-2.7c-0.4-0.4-0.9-0.4-1.3-0.1   l-2.2,1.6c-0.2-0.1-0.5-0.2-0.7-0.3l-0.4-2.7c-0.1-0.5-0.5-0.9-1-0.9h-3.8c-0.5,0-0.9,0.4-1,0.9l-0.4,2.7c-0.2,0.1-0.5,0.2-0.7,0.3   l-2.2-1.6c-0.4-0.3-1-0.3-1.3,0.1l-2.7,2.7c-0.4,0.4-0.4,0.9-0.1,1.3l1.6,2.2c-0.1,0.2-0.2,0.5-0.3,0.7l-2.7,0.4   c-0.5,0.1-0.9,0.5-0.9,1v3.8c0,0.5,0.4,0.9,0.9,1l2.7,0.4c0.1,0.2,0.2,0.5,0.3,0.7l-1.6,2.2c-0.3,0.4-0.3,1,0.1,1.3l2.7,2.7   c0.4,0.4,0.9,0.4,1.3,0.1l2.2-1.6c0.2,0.1,0.5,0.2,0.7,0.3l0.4,2.7c0.1,0.5,0.5,0.9,1,0.9h3.8c0.5,0,0.9-0.4,1-0.9l0.4-2.7   c0.2-0.1,0.5-0.2,0.7-0.3l2.2,1.6c0.4,0.3,1,0.3,1.3-0.1l2.7-2.7c0.4-0.4,0.4-0.9,0.1-1.3l-1.6-2.2c0.1-0.2,0.2-0.5,0.3-0.7   l2.7-0.4c0.5-0.1,0.9-0.5,0.9-1v-0.9h3c0.6,0,1-0.4,1-1V26.3l0.9,0.9c0.4,0.4,1,0.4,1.4,0c0.4-0.4,0.4-1,0-1.4L56.7,23.2z    M50.9,43.5l-2.4,0.4c-0.4,0.1-0.7,0.3-0.8,0.7c-0.2,0.5-0.4,1.1-0.6,1.5c-0.2,0.3-0.2,0.8,0.1,1.1l1.4,2l-1.5,1.5l-2-1.4   c-0.3-0.2-0.7-0.3-1.1-0.1c-0.5,0.3-1,0.5-1.5,0.6c-0.4,0.1-0.7,0.4-0.7,0.8l-0.4,2.4h-2.1L39,50.5c-0.1-0.4-0.3-0.7-0.7-0.8   c-0.5-0.2-1.1-0.4-1.5-0.6c-0.3-0.2-0.8-0.2-1.1,0.1l-2,1.4l-1.5-1.5l1.4-2c0.2-0.3,0.3-0.7,0.1-1.1c-0.3-0.5-0.5-1-0.6-1.5   c-0.1-0.4-0.4-0.7-0.8-0.7l-2.4-0.4v-2.1l2.4-0.4c0.4-0.1,0.7-0.3,0.8-0.7c0.2-0.5,0.4-1.1,0.6-1.5c0.2-0.3,0.2-0.8-0.1-1.1l-1.4-2   l1.5-1.5l2,1.4c0.3,0.2,0.7,0.3,1.1,0.1c0.5-0.3,1-0.5,1.5-0.6c0.4-0.1,0.7-0.4,0.7-0.8l0.4-2.4h2.1l0.4,2.4   c0.1,0.4,0.3,0.7,0.7,0.8c0.5,0.2,1.1,0.4,1.5,0.6c0.3,0.2,0.8,0.2,1.1-0.1l2-1.4l1.5,1.5l-1.4,2c-0.2,0.3-0.3,0.7-0.1,1.1   c0.3,0.5,0.5,1,0.6,1.5c0.1,0.4,0.4,0.7,0.8,0.7l2.4,0.4V43.5z"></path>
	</g>
</svg>