<svg xmlns="http://www.w3.org/2000/svg" xmlns:xlink="http://www.w3.org/1999/xlink" x="0px" y="0px" viewBox="0 0 160 200" style="enable-background:new 0 0 160 160;" xml:space="preserve">
	<path d="M151.395,22.895H8.605c-1.933,0-3.5,1.567-3.5,3.5v107.21c0,1.933,1.567,3.5,3.5,3.5h22.94h96.53h23.32  c1.933,0,3.5-1.567,3.5-3.5V26.395C154.895,24.462,153.328,22.895,151.395,22.895z M147.895,29.895v12.431H12.105V29.895H147.895z   M89.072,130.105c-0.066-0.169-0.132-0.337-0.207-0.502l14.535-14.536c1.367-1.366,1.367-3.583,0-4.949  c-1.367-1.367-3.583-1.367-4.95,0l-14.536,14.536c-1.253-0.572-2.639-0.9-4.1-0.9c-4.2,0-7.811,2.645-9.258,6.351H35.188  c0.802-10.026,4.929-19.132,11.273-26.216l4.737,4.737c0.488,0.488,1.128,0.732,1.768,0.732s1.28-0.244,1.768-0.732  c0.976-0.977,0.976-2.56,0-3.535l-4.73-4.729c7.344-6.57,16.854-10.761,27.31-11.341v6.717c0,1.381,1.119,2.5,2.5,2.5  s2.5-1.119,2.5-2.5v-6.718c10.456,0.579,19.966,4.771,27.309,11.342l-4.728,4.728c-0.977,0.977-0.977,2.559,0,3.535  c0.488,0.488,1.128,0.732,1.768,0.732s1.279-0.244,1.768-0.732l4.735-4.735c6.341,7.084,10.468,16.189,11.269,26.214H89.072z   M131.437,130.105c-1.855-26.857-24.31-48.16-51.622-48.16c-27.317,0-49.777,21.303-51.632,48.16H12.105V47.326h135.791v82.779  H131.437z"></path>
	<circle cx="19.952" cy="36.105" r="3.042"></circle>
	<circle cx="31.758" cy="36.105" r="3.042"></circle>
	<circle cx="43.563" cy="36.105" r="3.042"></circle>
</svg>