<svg xmlns="http://www.w3.org/2000/svg" xmlns:xlink="http://www.w3.org/1999/xlink" x="0px" y="0px" viewBox="0 0 100 125" style="enable-background:new 0 0 100 100;" xml:space="preserve">
	<g>
		<path d="M79.6,57.4h-3.3V29.7c1.1-0.6,1.9-1.7,1.9-3.1c0-1.9-1.5-3.4-3.4-3.4s-3.4,1.5-3.4,3.4c0,1.4,0.8,2.5,1.9,3.1v27.8h-54   c-3.6,0-6.5,2.9-6.5,6.5v10.2c0,3.6,2.9,6.5,6.5,6.5h0.5v1.3c0,1.9,1.6,3.5,3.5,3.5h2.2c1.9,0,3.5-1.6,3.5-3.5v-1.3h41.6v1.3   c0,1.9,1.6,3.5,3.5,3.5h2.2c1.9,0,3.5-1.6,3.5-3.5v-1.3c3.5-0.1,6.3-3,6.3-6.5V63.9C86.1,60.4,83.2,57.4,79.6,57.4z M26,81.9   c0,0.3-0.2,0.5-0.5,0.5h-2.2c-0.3,0-0.5-0.2-0.5-0.5v-1.3H26V81.9z M76.8,81.9c0,0.3-0.2,0.5-0.5,0.5h-2.2c-0.3,0-0.5-0.2-0.5-0.5   v-1.3h3.2V81.9z M83.1,74.2c0,1.9-1.6,3.5-3.5,3.5H19.3c-1.9,0-3.5-1.6-3.5-3.5V63.9c0-1.9,1.6-3.5,3.5-3.5h60.3   c1.9,0,3.5,1.6,3.5,3.5V74.2z"></path>
		<path d="M26,67.6h-3c-0.8,0-1.5,0.7-1.5,1.5s0.7,1.5,1.5,1.5h3c0.8,0,1.5-0.7,1.5-1.5S26.8,67.6,26,67.6z"></path>
		<path d="M36,67.6h-3c-0.8,0-1.5,0.7-1.5,1.5s0.7,1.5,1.5,1.5h3c0.8,0,1.5-0.7,1.5-1.5S36.9,67.6,36,67.6z"></path>
		<path d="M46,67.6h-3c-0.8,0-1.5,0.7-1.5,1.5s0.7,1.5,1.5,1.5h3c0.8,0,1.5-0.7,1.5-1.5S46.8,67.6,46,67.6z"></path>
		<path d="M55.9,67.6h-3c-0.8,0-1.5,0.7-1.5,1.5s0.7,1.5,1.5,1.5h3c0.8,0,1.5-0.7,1.5-1.5S56.7,67.6,55.9,67.6z"></path>
		<path d="M31.9,49h15.7c3.6,0,6.5-2.9,6.5-6.5v-9.2c0-3.1-2.1-5.6-5-6.3v-7.7c0-2.6-2.1-4.7-4.7-4.7h-9.5c-2.6,0-4.7,2.1-4.7,4.7V27   c-2.8,0.7-4.8,3.3-4.8,6.3v9.2C25.4,46.1,28.3,49,31.9,49z M34.9,17.6h9.5c0.9,0,1.7,0.7,1.7,1.7v7.5H33.2v-7.5   C33.2,18.3,33.9,17.6,34.9,17.6z M28.4,33.3c0-1.9,1.6-3.5,3.5-3.5h15.7c1.9,0,3.5,1.6,3.5,3.5v9.2c0,1.9-1.6,3.5-3.5,3.5H31.9   c-1.9,0-3.5-1.6-3.5-3.5V33.3z"></path>
		<path d="M37.8,39.4c0.1,0.2,0.1,0.5,0.1,0.8L37.9,41c-0.1,1,0.7,1.9,1.7,1.9c1,0,1.9-0.9,1.7-1.9l-0.1-0.6c0-0.3,0-0.6,0.1-0.9   l0.8-1.8c0.7-1.7-0.3-3.8-2.2-4c-0.1,0-0.2,0-0.3,0c-0.5,0-1,0.1-1.4,0.4c-1.2,0.7-1.7,2.2-1.2,3.5L37.8,39.4z"></path>
	</g>
</svg>