<svg xmlns="http://www.w3.org/2000/svg" viewBox="0 0 69 86.25"><path d="m61.13916 53.28594c0-.19902-.00092-47.00135-.00098-49.78613 0-.41406-.33594-.75-.75-.75h-51.77734c-.41406 0-.75.33594-.75.75.00005 2.78478.00097 49.62252.00098 49.78613 0 .41406.33594.75.75.75h20.95605l-7.17871 7.17871c-1.14648 1.15527-1.14551 3.02734.00195 4.17285 1.11627 1.11627 2.97076 1.18333 4.1748 0l7.93457-7.93457 7.93457 7.93457c1.12939 1.12939 2.98495 1.16929 4.16992.00488.00195-.00195.00293-.00293.00488-.00488 1.14746-1.14551 1.14844-3.01757 0-4.1748l-7.17676-7.17676h20.95605c.41408 0 .75002-.33594.75002-.75zm-51.77832-49.03614h50.27734v7.42969h-50.27734zm16.14941 60.07227c-.56641.55566-1.5166.5459-2.05859.00488-.56445-.56347-.56348-1.48632 0-2.05371l7.93457-7.93457 2.05371 2.05371zm20.04102.00293c-.56641.55078-1.51563.54102-2.05566.00195-5.59117-5.59116-9.77278-9.77278-15.49805-15.49804-.14453-.14453-.33594-.21973-.53027-.21973-.11914 0-.24023.02832-.35059.08691-2.6582 1.4043-5.87207.92285-7.99805-1.20313-1.42969-1.4248-2.13574-3.39551-1.97656-5.36914l2.42285 2.42285c.20117.2002.49512.27051.7666.18164l3.85156-1.27637c.22363-.07422.40039-.25.47461-.47461l1.28418-3.8457c.09082-.26953.02051-.56641-.18066-.76758l-2.42969-2.43066c1.97266-.15332 3.95508.54004 5.38379 1.96387 2.12793 2.12793 2.61133 5.34082 1.20313 7.99609-.1543.29102-.10059.64941.13281.88184 5.69928 5.69928 9.86202 9.86202 15.49609 15.49609.56446.56935.56641 1.48927.00391 2.05372zm-6.46875-18.43164c-1.40723-2.65527-.92383-5.86914 1.20215-7.99512 1.42969-1.42383 3.40137-2.12012 5.38281-1.96484l-2.43457 2.42969c-.20215.20117-.27246.5-.18164.77051l1.29199 3.8457c.0752.22363.25098.39844.47461.47266l3.85254 1.27637c.27246.08984.56641.01855.7666-.18164l2.42188-2.42188c.15918 1.97266-.54688 3.94336-1.97656 5.36816l-.00098.00098c-2.12695 2.12598-5.33887 2.6123-7.99609 1.20215-.29102-.15332-.64844-.10059-.88184.13281l-3.38867 3.38867-2.05371-2.05371 3.38867-3.38867c.2334-.23243.28711-.59082.13281-.88184zm20.55664 6.64258h-20.22168l2.26855-2.26855c3.13477 1.40625 6.79199.75195 9.25488-1.71191 2.13965-2.13184 2.95117-5.26563 2.11816-8.17676-.07227-.25586-.27539-.45313-.53223-.51953-.25879-.06738-.53125.00781-.71875.19531l-3.10449 3.10449-3.05762-1.0127-1.02441-3.0498 3.11621-3.10938c.18848-.18848.26367-.46094.19727-.71875-.06641-.25684-.26465-.45996-.51953-.5332-2.91699-.83496-6.05273-.0293-8.19043 2.10156-2.46289 2.46289-3.12012 6.11914-1.71387 9.25586l-3.01074 3.01074-3.01074-3.01074c1.40625-3.13574.74902-6.79297-1.71484-9.25684-2.1377-2.12988-5.27441-2.93555-8.18848-2.10059-.25586.07324-.45313.27539-.52051.5332-.06641.25684.00879.53027.19629.71777l3.11035 3.11035-1.01855 3.0498-3.05566 1.0127-3.10449-3.10449c-.1875-.1875-.46289-.26074-.71777-.19629-.25781.06738-.45996.26465-.5332.52051-.83398 2.91113-.02246 6.04395 2.11621 8.17578 2.46094 2.45996 6.11621 3.11816 9.25586 1.71289l2.26855 2.26855h-20.22168v-39.35545h50.27734z"></path><path d="m15.49365 5.17266c-1.53906 0-2.79199 1.25293-2.79199 2.79199s1.25293 2.79199 2.79199 2.79199 2.79199-1.25293 2.79199-2.79199-1.25293-2.79199-2.79199-2.79199zm0 4.08398c-.71289 0-1.29199-.5791-1.29199-1.29199s.5791-1.29199 1.29199-1.29199 1.29199.5791 1.29199 1.29199-.5791 1.29199-1.29199 1.29199z"></path><path d="m23.27783 5.17266c-1.53906 0-2.79199 1.25293-2.79199 2.79199s1.25293 2.79199 2.79199 2.79199 2.79199-1.25293 2.79199-2.79199-1.25293-2.79199-2.79199-2.79199zm0 4.08398c-.71289 0-1.29199-.5791-1.29199-1.29199s.5791-1.29199 1.29199-1.29199 1.29199.5791 1.29199 1.29199-.5791 1.29199-1.29199 1.29199z"></path><path d="m31.06201 5.17266c-1.53906 0-2.79199 1.25293-2.79199 2.79199s1.25293 2.79199 2.79199 2.79199 2.79199-1.25293 2.79199-2.79199-1.25293-2.79199-2.79199-2.79199zm0 4.08398c-.71289 0-1.29199-.5791-1.29199-1.29199s.5791-1.29199 1.29199-1.29199 1.29199.5791 1.29199 1.29199-.5791 1.29199-1.29199 1.29199z"></path><path d="m55.54541 7.21465h-17.80176c-.41406 0-.75.33594-.75.75s.33594.75.75.75h17.80176c.41406 0 .75-.33594.75-.75s-.33594-.75-.75-.75z"></path><path d="m24.68604 28.37285 2.1543.44141c.15039.48535.34668.96191.58594 1.42285l-1.20898 1.83203c-.19629.29688-.15625.69141.0957.94336l1.92773 1.92871c.25195.25195.64844.29199.94629.09375l1.82715-1.21777c.44336.23242.91895.42676 1.42188.58105l.42773 2.14941c.06934.35059.37793.60352.73535.60352h2.72754c.35742 0 .66602-.25293.73535-.60352l.42773-2.14941c.50391-.1543.97949-.34863 1.42285-.58105l1.82617 1.21777c.29785.19922.69434.15918.94629-.09375l1.92773-1.92871c.25195-.25195.29199-.64746.09473-.94434l-1.21484-1.83496c.24121-.44238.4375-.91211.59375-1.41895l2.15332-.44141c.34863-.07129.59961-.37793.59961-.73438v-2.72754c0-.3584-.25293-.66602-.60352-.73535l-2.15039-.42676c-.15723-.51465-.35352-.98828-.5918-1.42969l1.21289-1.81934c.19824-.29688.15918-.69336-.09375-.94629l-1.92773-1.92871c-.25293-.25293-.64941-.29297-.94629-.09375l-1.82031 1.21387c-.44043-.2373-.91797-.43555-1.42871-.59277l-.42773-2.14941c-.06934-.35058-.37793-.60351-.73535-.60351h-2.72754c-.35742 0-.66602.25293-.73535.60351l-.42773 2.14941c-.51367.15723-.98633.35352-1.42871.59277l-1.82031-1.21387c-.2959-.19824-.69336-.1582-.94629.09375l-1.92773 1.92871c-.25195.25195-.29199.64648-.0957.94336l1.20898 1.83203c-.23828.45996-.43457.93555-.58496 1.41895l-2.15137.42773c-.35059.06934-.60352.37695-.60352.73535v2.72754c-.00001.35647.25096.66311.5996.7344zm.90039-2.8457 1.99902-.39746c.28418-.05664.51074-.27246.58105-.55371.16309-.65527.42676-1.2959.78223-1.90332.14453-.24707.13574-.55371-.02148-.79199l-1.12109-1.69922 1.06055-1.06152 1.69824 1.13281c.24707.16406.56641.16699.81738.00977.5498-.34863 1.16602-.60449 1.88184-.78418.28125-.07031.49609-.29688.55273-.58105l.39746-1.99805h1.49707l.39746 1.99805c.05664.28418.27148.51074.55273.58105.71777.17969 1.33301.43652 1.88184.78418.25098.15723.57031.1543.81738-.00977l1.69824-1.13281 1.05859 1.05957-1.13281 1.69824c-.16504.24707-.16797.56738-.00879.81836.34668.54688.60352 1.16113.7832 1.87988.07031.28223.29688.49707.58105.55371l1.99902.39746v1.49902l-2.00293.41113c-.2832.05762-.50684.27246-.57715.55273-.17578.70117-.43164 1.31055-.7832 1.86426-.15918.25-.15625.56934.00781.81641l1.13477 1.71485-1.05957 1.06055-1.69824-1.13281c-.24316-.16211-.55762-.16895-.80664-.0166-.55566.33887-1.19336.60059-1.89258.77539-.28125.07031-.49609.29688-.55273.58105l-.39746 1.99805h-1.49707l-.39746-1.99805c-.05664-.28418-.27148-.51074-.55273-.58105-.69824-.1748-1.33496-.43555-1.89355-.77539-.25-.15234-.56348-.14551-.80566.0166l-1.69824 1.13281-1.06055-1.06152 1.12109-1.69922c.15723-.23828.16602-.54492.02148-.79199-.35547-.60742-.61914-1.24805-.78223-1.90332-.06934-.28027-.29395-.49512-.57715-.55273l-2.00293-.41113v-1.49904z"></path><path d="m34.9624 31.24199c2.73047 0 4.95117-2.22852 4.95117-4.9668 0-2.73047-2.2207-4.95117-4.95117-4.95117-2.73828 0-4.96582 2.2207-4.96582 4.95117 0 2.73829 2.22754 4.9668 4.96582 4.9668zm0-8.41797c1.90332 0 3.45117 1.54785 3.45117 3.45117 0 1.91113-1.54785 3.4668-3.45117 3.4668-1.91113 0-3.46582-1.55566-3.46582-3.4668 0-1.90332 1.55469-3.45117 3.46582-3.45117z"></path></svg>