<?xml version="1.0" encoding="iso-8859-1"?>
<!-- Generator: Adobe Illustrator 19.0.0, SVG Export Plug-In . SVG Version: 6.00 Build 0)  -->
<svg version="1.1" id="Layer_1" xmlns="http://www.w3.org/2000/svg" xmlns:xlink="http://www.w3.org/1999/xlink" x="0px" y="0px"
	 viewBox="0 0 491.52 491.52" style="enable-background:new 0 0 491.52 491.52;" xml:space="preserve">
<g>
	<g>
		<path d="M184.32,42.42c-78.24,0-141.9,63.66-141.9,141.9s63.66,141.9,141.9,141.9s141.9-63.66,141.9-141.9
			S262.56,42.42,184.32,42.42z M184.32,305.74c-66.95,0-121.42-54.47-121.42-121.42S117.37,62.9,184.32,62.9
			s121.42,54.47,121.42,121.42S251.27,305.74,184.32,305.74z"/>
	</g>
</g>
<g>
	<g>
		<rect x="174.08" y="81.92" width="20.48" height="20.48"/>
	</g>
</g>
<g>
	<g>
		<rect x="81.92" y="174.08" width="20.48" height="20.48"/>
	</g>
</g>
<g>
	<g>
		<rect x="174.08" y="266.24" width="20.48" height="20.48"/>
	</g>
</g>
<g>
	<g>
		<rect x="266.24" y="174.08" width="20.48" height="20.48"/>
	</g>
</g>
<g>
	<g>
		<path d="M263.24,118.42l-14.48-14.48l-52.224,52.224c-3.749-1.633-7.872-2.564-12.216-2.564c-16.94,0-30.72,13.78-30.72,30.72
			s13.78,30.72,30.72,30.72s30.72-13.78,30.72-30.72c0-5.112-1.374-9.863-3.592-14.108L263.24,118.42z M184.32,194.56
			c-5.65,0-10.24-4.59-10.24-10.24c0-5.65,4.59-10.24,10.24-10.24s10.24,4.59,10.24,10.24
			C194.56,189.97,189.97,194.56,184.32,194.56z"/>
	</g>
</g>
<g>
	<g>
		<path d="M472.06,378.13l-80.15-80.16c-7.99-7.99-21-7.98-28.97,0l-9.355,9.355l-17.938-17.938
			c21.369-30.637,32.992-66.934,32.992-105.068c0-49.23-19.17-95.52-53.99-130.33C279.84,19.17,233.55,0,184.32,0
			S88.8,19.17,53.99,53.99C19.17,88.8,0,135.09,0,184.32c0,49.23,19.17,95.52,53.99,130.33c34.81,34.82,81.1,53.99,130.33,53.99
			c38.134,0,74.431-11.623,105.068-32.992l17.937,17.937l-9.355,9.355c-7.99,7.99-7.99,20.98,0,28.97l80.16,80.15
			c12.54,12.55,29.22,19.46,46.97,19.46c17.74,0,34.42-6.91,46.96-19.46c12.55-12.54,19.46-29.22,19.46-46.96
			C491.52,407.35,484.61,390.67,472.06,378.13z M184.32,348.16c-43.76,0-84.9-17.04-115.85-47.99
			c-30.95-30.95-47.99-72.09-47.99-115.85s17.04-84.9,47.99-115.85c30.95-30.95,72.09-47.99,115.85-47.99s84.9,17.04,115.85,47.99
			c30.95,30.95,47.99,72.09,47.99,115.85s-17.04,84.9-47.99,115.85C269.22,331.12,228.08,348.16,184.32,348.16z M305.579,322.879
			c3.063-2.688,6.163-5.321,9.071-8.229c2.908-2.908,5.541-6.008,8.229-9.071l16.226,16.226l-17.3,17.3L305.579,322.879z
			 M457.58,457.58c-8.68,8.68-20.22,13.46-32.48,13.46c-12.27,0-23.81-4.78-32.49-13.46l-80.17-80.15l64.99-64.98l80.15,80.16
			c8.68,8.68,13.46,20.22,13.46,32.49C471.04,437.36,466.26,448.9,457.58,457.58z"/>
	</g>
</g>
<g>
	<g>
		
			<rect x="374.423" y="374.413" transform="matrix(0.7071 -0.7071 0.7071 0.7071 -159.3254 384.6613)" width="20.48" height="20.48"/>
	</g>
</g>
<g>
	<g>
		
			<rect x="403.294" y="403.345" transform="matrix(0.7071 -0.7071 0.7071 0.7071 -171.3278 413.5475)" width="20.48" height="20.48"/>
	</g>
</g>
<g>
</g>
<g>
</g>
<g>
</g>
<g>
</g>
<g>
</g>
<g>
</g>
<g>
</g>
<g>
</g>
<g>
</g>
<g>
</g>
<g>
</g>
<g>
</g>
<g>
</g>
<g>
</g>
<g>
</g>
</svg>
