<?xml version="1.0" encoding="iso-8859-1"?>
<!-- Generator: Adobe Illustrator 19.0.0, SVG Export Plug-In . SVG Version: 6.00 Build 0)  -->
<svg version="1.1" id="Layer_1" xmlns="http://www.w3.org/2000/svg" xmlns:xlink="http://www.w3.org/1999/xlink" x="0px" y="0px"
	 viewBox="0 0 491.52 491.52" style="enable-background:new 0 0 491.52 491.52;" xml:space="preserve">
<g>
	<g>
		<path d="M491.52,409.6V71.68H372.469C346.456,28.804,299.468,0,245.76,0S145.064,28.804,119.051,71.68H0V409.6h153.6v61.44h-40.96
			v20.48h266.24v-20.48h-40.96V409.6H491.52z M20.48,92.16h88.119c-7.112,17.322-11.099,36.246-11.099,56.1v4.145
			c-15.51,10.042-25.82,27.462-25.82,47.275C71.68,230.735,96.95,256,128,256h15.36V143.36H128c-3.354,0-6.623,0.349-9.818,0.914
			C120.314,75.668,176.646,20.48,245.76,20.48s125.446,55.188,127.578,123.794c-3.195-0.565-6.464-0.914-9.818-0.914h-15.36V256
			h15.36c5.33,0,10.469-0.793,15.36-2.184v22.664h-73.567c-4.24-11.894-15.501-20.48-28.833-20.48h-30.72
			c-16.94,0-30.72,13.78-30.72,30.72s13.78,30.72,30.72,30.72h30.72c13.332,0,24.593-8.586,28.833-20.48h94.047v-53.871
			c12.499-10.338,20.48-25.959,20.48-43.409c0-19.813-10.31-37.233-25.82-47.275v-4.145c0-19.854-3.988-38.778-11.099-56.1h88.119
			v245.76H20.48V92.16z M122.88,164.205v70.95c-17.35-2.49-30.72-17.45-30.72-35.475C92.16,181.655,105.53,166.695,122.88,164.205z
			 M399.36,199.68c0,18.025-13.37,32.985-30.72,35.475v-70.95C385.99,166.695,399.36,181.655,399.36,199.68z M286.72,286.72
			c0,5.645-4.59,10.24-10.24,10.24h-30.72c-5.65,0-10.24-4.595-10.24-10.24c0-5.645,4.59-10.24,10.24-10.24h30.72
			C282.13,276.48,286.72,281.075,286.72,286.72z M317.44,471.04H174.08V409.6h143.36V471.04z M20.48,389.12V358.4h450.56v30.72
			H20.48z"/>
	</g>
</g>
<g>
</g>
<g>
</g>
<g>
</g>
<g>
</g>
<g>
</g>
<g>
</g>
<g>
</g>
<g>
</g>
<g>
</g>
<g>
</g>
<g>
</g>
<g>
</g>
<g>
</g>
<g>
</g>
<g>
</g>
</svg>
