<?xml version="1.0" encoding="iso-8859-1"?>
<!-- Generator: Adobe Illustrator 19.0.0, SVG Export Plug-In . SVG Version: 6.00 Build 0)  -->
<svg version="1.1" id="Layer_1" xmlns="http://www.w3.org/2000/svg" xmlns:xlink="http://www.w3.org/1999/xlink" x="0px" y="0px"
	 viewBox="0 0 491.52 491.52" style="enable-background:new 0 0 491.52 491.52;" xml:space="preserve">
<g>
	<g>
		<rect x="430.08" y="40.96" width="20.48" height="20.48"/>
	</g>
</g>
<g>
	<g>
		<path d="M0,0v491.52h491.52V0H0z M471.04,471.04H20.48V102.4h450.56V471.04z M471.04,81.92H20.48V20.48h450.56V81.92z"/>
	</g>
</g>
<g>
	<g>
		<rect x="389.12" y="40.96" width="20.48" height="20.48"/>
	</g>
</g>
<g>
	<g>
		<rect x="348.16" y="40.96" width="20.48" height="20.48"/>
	</g>
</g>
<g>
	<g>
		<rect x="51.2" y="40.96" width="245.76" height="20.48"/>
	</g>
</g>
<g>
	<g>
		<path d="M387.115,276.48l10.155-10.24h47.26l-4.79-13.635C429.7,224.01,402.755,204.8,372.695,204.8
			c-24.124,0-45.446,12.177-58.323,30.72H177.148c-12.877-18.543-34.199-30.72-58.323-30.72c-30.06,0-57.005,19.21-67.045,47.805
			l-4.79,13.635h47.26l10.155,10.24L94.25,286.72H46.99l4.79,13.635c10.04,28.595,36.985,47.805,67.045,47.805
			c24.124,0,45.446-12.177,58.323-30.72h137.224c12.877,18.542,34.199,30.72,58.323,30.72c30.06,0,57.005-19.21,67.045-47.805
			l4.79-13.635h-47.26L387.115,276.48z M118.825,327.68c-16.165,0-31.07-7.835-40.48-20.48h24.435l30.465-30.72l-30.465-30.72
			H78.345c9.41-12.645,24.315-20.48,40.48-20.48c27.95,0,50.69,22.97,50.69,51.2S146.775,327.68,118.825,327.68z M186.997,296.96
			c1.927-6.496,2.997-13.361,2.997-20.48s-1.07-13.984-2.997-20.48h117.525c-1.927,6.496-2.997,13.361-2.997,20.48
			s1.07,13.984,2.998,20.48H186.997z M372.695,327.68c-27.95,0-50.69-22.97-50.69-51.2s22.74-51.2,50.69-51.2
			c16.165,0,31.07,7.835,40.48,20.48H388.74l-30.465,30.72l30.465,30.72h24.435C403.765,319.845,388.86,327.68,372.695,327.68z"/>
	</g>
</g>
<g>
</g>
<g>
</g>
<g>
</g>
<g>
</g>
<g>
</g>
<g>
</g>
<g>
</g>
<g>
</g>
<g>
</g>
<g>
</g>
<g>
</g>
<g>
</g>
<g>
</g>
<g>
</g>
<g>
</g>
</svg>
