<?xml version="1.0" encoding="iso-8859-1"?>
<!-- Generator: Adobe Illustrator 19.0.0, SVG Export Plug-In . SVG Version: 6.00 Build 0)  -->
<svg version="1.1" id="Layer_1" xmlns="http://www.w3.org/2000/svg" xmlns:xlink="http://www.w3.org/1999/xlink" x="0px" y="0px"
	 viewBox="0 0 491.52 491.52" style="enable-background:new 0 0 491.52 491.52;" xml:space="preserve">
<g>
	<g>
		<path d="M399.36,43.96c-50.815,0-92.16,41.34-92.16,92.16c0,36.095,20.907,67.32,51.2,82.436v77.164l-29.84,29.84l35.84,35.84
			l-16.24,16.24v39.2l40.96,40.96l40.96-40.96V222.903c35.735-12.691,61.44-46.747,61.44-86.783
			C491.52,85.3,450.175,43.96,399.36,43.96z M409.6,408.36l-20.48,20.48l-20.48-20.48v-22.24l24.72-24.72l-35.84-35.84l21.36-21.36
			v-78.293c6.597,1.505,13.433,2.373,20.48,2.373c3.465,0,6.873-0.23,10.24-0.604V408.36z M399.36,207.8
			c-39.525,0-71.68-32.16-71.68-71.68c0-39.52,32.155-71.68,71.68-71.68c39.525,0,71.68,32.16,71.68,71.68
			C471.04,175.64,438.885,207.8,399.36,207.8z"/>
	</g>
</g>
<g>
	<g>
		<path d="M399.36,74.68c-16.94,0-30.72,13.78-30.72,30.72s13.78,30.72,30.72,30.72s30.72-13.78,30.72-30.72
			S416.3,74.68,399.36,74.68z M399.36,115.64c-5.645,0-10.24-4.59-10.24-10.24c0-5.65,4.595-10.24,10.24-10.24
			c5.645,0,10.24,4.59,10.24,10.24C409.6,111.05,405.005,115.64,399.36,115.64z"/>
	</g>
</g>
<g>
	<g>
		<path d="M266.24,228.28v-81.92c0-62.11-50.53-112.64-112.64-112.64S40.96,84.25,40.96,146.36v81.92H0v225.28h307.2V228.28H266.24z
			 M61.44,146.36c0-50.82,41.345-92.16,92.16-92.16c50.815,0,92.16,41.34,92.16,92.16v81.92H61.44V146.36z M286.72,433.08H20.48
			V248.76h266.24V433.08z"/>
	</g>
</g>
<g>
	<g>
		<path d="M196.825,392.12l-11.335-56.33c5.885-7.24,9.07-16.14,9.07-25.59c0-22.59-18.375-40.96-40.96-40.96
			c-22.585,0-40.96,18.37-40.96,40.96c0,9.45,3.185,18.34,9.075,25.59l-11.345,56.33H196.825z M153.6,289.72
			c11.295,0,20.48,9.19,20.48,20.48c0,5.69-2.355,11-6.625,14.96l-4.21,3.9l8.57,42.58H135.39l8.57-42.58l-4.21-3.9
			c-4.275-3.96-6.63-9.27-6.63-14.96C133.12,298.91,142.305,289.72,153.6,289.72z"/>
	</g>
</g>
<g>
</g>
<g>
</g>
<g>
</g>
<g>
</g>
<g>
</g>
<g>
</g>
<g>
</g>
<g>
</g>
<g>
</g>
<g>
</g>
<g>
</g>
<g>
</g>
<g>
</g>
<g>
</g>
<g>
</g>
</svg>
