<?xml version="1.0" encoding="iso-8859-1"?>
<!-- Generator: Adobe Illustrator 19.0.0, SVG Export Plug-In . SVG Version: 6.00 Build 0)  -->
<svg version="1.1" id="Layer_1" xmlns="http://www.w3.org/2000/svg" xmlns:xlink="http://www.w3.org/1999/xlink" x="0px" y="0px"
	 viewBox="0 0 491.52 491.52" style="enable-background:new 0 0 491.52 491.52;" xml:space="preserve">
<g>
	<g>
		<path d="M266.24,0v491.52h133.12V0H266.24z M378.88,471.04h-92.16v-51.2h40.96v-20.48h-40.96v-61.44h30.72v-20.48h-30.72V256
			h40.96v-20.48h-40.96v-61.44h30.72V153.6h-30.72V92.16h40.96V71.68h-40.96v-51.2h92.16V471.04z"/>
	</g>
</g>
<g>
	<g>
		<path d="M173.396,153.48c3.962-2.732,7.544-6.056,10.484-10.04c24.86-33.695-3.74-71.55-4.98-73.155
			c-17.94-23.235-12.72-46.095-9.63-54.86c1.61-4.615,0.2-9.615-3.6-12.74c-3.77-3.11-9.15-3.555-13.38-1.085l-0.01,0.01
			C89.29,38.65,90.07,90.55,96.14,118.19c3.006,13.686,9.981,25.158,19.962,32.982C99.566,167.326,92.16,202.529,92.16,260.955
			c0,37.925,8.96,230.565,51.55,230.565c47.71,0,51.55-228.26,51.55-230.565C195.26,205.082,188.448,170.53,173.396,153.48z
			 M145.68,31.015c-0.63,14.495,2.6,33.12,17.01,51.78c0.21,0.27,20.5,27.085,4.71,48.48c-4.064,5.511-10.321,8.831-17.206,9.697
			c-2.083-0.28-4.243-0.422-6.484-0.422c-0.788,0-1.511,0.114-2.279,0.148c-2.329-0.427-4.659-1.046-6.941-2.063
			c-8.95-4.01-15.81-13.295-18.35-24.835C110.96,90.19,112.73,58.04,145.68,31.015z M169.504,194.56h-51.588
			c6.073-28.243,16.037-32.699,22.556-33.393c2.021,0.253,4.042,0.628,6.057,0.628c0.992,0,1.972-0.106,2.959-0.166
			C155.855,163.309,164.177,169.786,169.504,194.56z M143.71,469.94c-13.76-15.73-31.07-116.98-31.07-208.985
			c0-18.536,0.779-33.618,2.099-45.915h57.943c1.319,12.297,2.099,27.379,2.099,45.915C174.78,352.97,157.47,454.22,143.71,469.94z"
			/>
	</g>
</g>
<g>
</g>
<g>
</g>
<g>
</g>
<g>
</g>
<g>
</g>
<g>
</g>
<g>
</g>
<g>
</g>
<g>
</g>
<g>
</g>
<g>
</g>
<g>
</g>
<g>
</g>
<g>
</g>
<g>
</g>
</svg>
