<svg id="Icons" height="512" viewBox="0 0 74 74" width="512" xmlns="http://www.w3.org/2000/svg"><path d="m71 18h-68a1 1 0 0 1 0-2h68a1 1 0 0 1 0 2z"/><path d="m69 72h-64a3 3 0 0 1 -3-3v-64a3 3 0 0 1 3-3h64a3 3 0 0 1 3 3v64a3 3 0 0 1 -3 3zm-64-68a1 1 0 0 0 -1 1v64a1 1 0 0 0 1 1h64a1 1 0 0 0 1-1v-64a1 1 0 0 0 -1-1z"/><path d="m63 11h-30a1 1 0 0 1 0-2h30a1 1 0 0 1 0 2z"/><path d="m27 11h-2a1 1 0 0 1 0-2h2a1 1 0 0 1 0 2z"/><path d="m20 11h-2a1 1 0 0 1 0-2h2a1 1 0 0 1 0 2z"/><path d="m13 11h-2a1 1 0 0 1 0-2h2a1 1 0 0 1 0 2z"/><path d="m48.782 62h-23.564a2.124 2.124 0 0 1 -2.118-2.122v-16.949a2.123 2.123 0 0 1 2.121-2.121h23.561a2.123 2.123 0 0 1 2.118 2.121v16.949a2.124 2.124 0 0 1 -2.118 2.122zm-23.564-19.192a.121.121 0 0 0 -.121.121v16.949a.122.122 0 0 0 .121.122h23.564a.122.122 0 0 0 .121-.122v-16.949a.121.121 0 0 0 -.121-.121z"/><path d="m46 42.808h-18a1 1 0 0 1 -1-1v-6.808a10 10 0 0 1 20 0v6.808a1 1 0 0 1 -1 1zm-17-2h16v-5.808a8 8 0 0 0 -16 0z"/><path d="m37 53.533a3.308 3.308 0 1 1 3.309-3.308 3.313 3.313 0 0 1 -3.309 3.308zm0-4.616a1.308 1.308 0 1 0 1.309 1.308 1.309 1.309 0 0 0 -1.309-1.308z"/><path d="m37 55.891a1 1 0 0 1 -1-1v-2.358a1 1 0 0 1 2 0v2.358a1 1 0 0 1 -1 1z"/></svg>